<svg xmlns="http://www.w3.org/2000/svg" viewBox="0 0 32 32"><g data-name="STYLE = COLOR"><path d="M9.333 2h21.334A1.333 1.333 0 0132 3.333v25.334A1.333 1.333 0 0130.667 30H9.333A1.333 1.333 0 018 28.667V3.333A1.333 1.333 0 019.333 2z" fill="#ca64ea"/><path d="M32 3.333A1.333 1.333 0 0030.666 2H9.334A1.333 1.333 0 008 3.333v25.334A1.333 1.333 0 009.333 30H25l7-21z" fill="#ca64ea"/><path fill="#ae4bd5" d="M32 9h-7v7l3.5 3.195L32 16V9z"/><path fill="#9332bf" d="M32 16h-7v7l3.5 3.395L32 23v-7z"/><path d="M25 23h7v5.667A1.333 1.333 0 0130.667 30H25v-7z" fill="#7719aa"/><path d="M16.667 7H8v19h8.667A1.337 1.337 0 0018 24.667V8.333A1.337 1.337 0 0016.667 7z" opacity=".1"/><path d="M15.667 8H8v19h7.667A1.337 1.337 0 0017 25.667V9.333A1.337 1.337 0 0015.667 8z" opacity=".2"/><path d="M15.667 8H8v17h7.667A1.337 1.337 0 0017 23.667V9.333A1.337 1.337 0 0015.667 8z" opacity=".3"/><path d="M14.667 8H8v17h6.667A1.337 1.337 0 0016 23.667V9.333A1.337 1.337 0 0014.667 8z" opacity=".2"/><path data-name="Back Plate" d="M1.333 8h13.334A1.333 1.333 0 0116 9.333v13.334A1.333 1.333 0 0114.667 24H1.333A1.333 1.333 0 010 22.667V9.333A1.333 1.333 0 011.333 8z" fill="#7719aa"/><path d="M4.001 11h2.13l3.656 6.732q.286.435.43.7h.026a9.493 9.493 0 01-.06-1.326V11h1.816v10h-1.994l-3.813-6.63a5.133 5.133 0 01-.388-.686H5.77a13.628 13.628 0 01.055 1.456V21H4z" fill="#fff"/><path fill="none" d="M0 0h32v32H0z"/></g></svg>